<?xml version="1.0" encoding="UTF-8" standalone="no"?>
<svg
   xmlns:dc="http://purl.org/dc/elements/1.1/"
   xmlns:cc="http://creativecommons.org/ns#"
   xmlns:rdf="http://www.w3.org/1999/02/22-rdf-syntax-ns#"
   xmlns:svg="http://www.w3.org/2000/svg"
   xmlns="http://www.w3.org/2000/svg"
   xmlns:sodipodi="http://sodipodi.sourceforge.net/DTD/sodipodi-0.dtd"
   xmlns:inkscape="http://www.inkscape.org/namespaces/inkscape"
   id="svg2"
   viewBox="0 0 124.40467 200.07213"
   version="1.1"
   sodipodi:docname="door01.svg"
   width="124.40466"
   height="200.07213"
   inkscape:version="0.92.5 (2060ec1f9f, 2020-04-08)">
  <sodipodi:namedview
     pagecolor="#ffffff"
     bordercolor="#666666"
     borderopacity="1"
     objecttolerance="10"
     gridtolerance="10"
     guidetolerance="10"
     inkscape:pageopacity="0"
     inkscape:pageshadow="2"
     inkscape:window-width="1920"
     inkscape:window-height="1020"
     id="namedview42"
     showgrid="false"
     inkscape:zoom="3.1765796"
     inkscape:cx="5.577352"
     inkscape:cy="95.407419"
     inkscape:window-x="0"
     inkscape:window-y="28"
     inkscape:window-maximized="1"
     inkscape:current-layer="svg2" />
  <title
     id="title4009">Door</title>
  <defs
     id="defs4">
    <filter
       id="filter3812"
       style="color-interpolation-filters:sRGB">
      <feGaussianBlur
         id="feGaussianBlur3814"
         stdDeviation="1.411933" />
    </filter>
    <filter
       id="filter3860"
       style="color-interpolation-filters:sRGB">
      <feGaussianBlur
         id="feGaussianBlur3862"
         stdDeviation="2.9344931" />
    </filter>
  </defs>
  <g
     id="layer1"
     transform="matrix(0.18351336,0,0,0.16831948,242.4395,23.33413)">
    <rect
       id="rect3924"
       style="color:#000000;fill:#808080;stroke:#000000;stroke-width:1.89040005;stroke-linecap:round;stroke-linejoin:round"
       height="1176.7"
       width="661.96002"
       y="-127.63"
       x="-1306.1" />
    <rect
       id="rect3900"
       style="color:#000000;fill:#f9f9f9;stroke:#000000;stroke-width:6;stroke-linecap:round;stroke-linejoin:round"
       height="1176.7"
       width="661.96002"
       y="-135.63"
       x="-1318.1" />
    <g
       id="g3902"
       transform="matrix(0.88739,0,0,1,-137.27,-12)"
       style="fill:#f9f9f9;stroke:#000000">
      <g
         id="g3864"
         transform="matrix(0.89691,0,0,0.89691,-516.35,-45.522)">
        <rect
           id="rect3824"
           style="color:#000000;stroke-width:3"
           height="436"
           width="236"
           y="67.098999"
           x="-782" />
        <rect
           id="rect3826"
           style="color:#000000;stroke-width:2.74900007"
           height="399.51001"
           width="216.25"
           y="85.341003"
           x="-772.13" />
        <rect
           id="rect3828"
           style="color:#000000;stroke-width:2.49790001"
           height="363.03"
           width="196.5"
           y="103.58"
           x="-762.25" />
        <path
           id="path3830"
           d="M -562.86,94.94 H -767.92 V 476.78"
           inkscape:connector-curvature="0"
           style="stroke-width:2;filter:url(#filter3860)" />
      </g>
      <g
         id="g3870"
         transform="matrix(0.89691,0,0,0.89691,-228.35,-45.522)">
        <rect
           id="rect3872"
           style="color:#000000;stroke-width:3"
           height="436"
           width="236"
           y="67.098999"
           x="-782" />
        <rect
           id="rect3874"
           style="color:#000000;stroke-width:2.74900007"
           height="399.51001"
           width="216.25"
           y="85.341003"
           x="-772.13" />
        <rect
           id="rect3876"
           style="color:#000000;stroke-width:2.49790001"
           height="363.03"
           width="196.5"
           y="103.58"
           x="-762.25" />
        <path
           id="path3878"
           d="M -562.86,94.94 H -767.92 V 476.78"
           inkscape:connector-curvature="0"
           style="stroke-width:2;filter:url(#filter3860)" />
      </g>
      <g
         id="g3880"
         transform="matrix(0.89691,0,0,0.89691,-516.35,454.48)">
        <rect
           id="rect3882"
           style="color:#000000;stroke-width:3"
           height="436"
           width="236"
           y="67.098999"
           x="-782" />
        <rect
           id="rect3884"
           style="color:#000000;stroke-width:2.74900007"
           height="399.51001"
           width="216.25"
           y="85.341003"
           x="-772.13" />
        <rect
           id="rect3886"
           style="color:#000000;stroke-width:2.49790001"
           height="363.03"
           width="196.5"
           y="103.58"
           x="-762.25" />
        <path
           id="path3888"
           d="M -562.86,94.94 H -767.92 V 476.78"
           inkscape:connector-curvature="0"
           style="stroke-width:2;filter:url(#filter3860)" />
      </g>
      <g
         id="g3890"
         transform="matrix(0.89691,0,0,0.89691,-228.35,454.48)">
        <rect
           id="rect3892"
           style="color:#000000;stroke-width:3"
           height="436"
           width="236"
           y="67.098999"
           x="-782" />
        <rect
           id="rect3894"
           style="color:#000000;stroke-width:2.74900007"
           height="399.51001"
           width="216.25"
           y="85.341003"
           x="-772.13" />
        <rect
           id="rect3896"
           style="color:#000000;stroke-width:2.49790001"
           height="363.03"
           width="196.5"
           y="103.58"
           x="-762.25" />
        <path
           id="path3898"
           d="M -562.86,94.94 H -767.92 V 476.78"
           inkscape:connector-curvature="0"
           style="stroke-width:2;filter:url(#filter3860)" />
      </g>
    </g>
    <g
       id="g3816"
       transform="matrix(0.62288,0,0,0.62288,-828.05,155.5)">
      <rect
         id="rect3776"
         style="color:#000000;fill:#808080"
         height="245"
         width="105"
         y="369.35999"
         x="121" />
      <path
         id="path2985"
         d="m 183,514.36 c 0,5.5228 -4.4772,10 -10,10 -5.5228,0 -10,-4.4772 -10,-10 0,-5.5228 4.4772,-10 10,-10 5.5228,0 10,4.4772 10,10 z"
         style="color:#000000"
         transform="translate(-1)"
         inkscape:connector-curvature="0" />
      <rect
         id="rect3755"
         style="color:#000000"
         ry="0"
         height="38"
         width="10"
         y="510.35999"
         x="167" />
      <path
         id="path3780"
         d="m 4,484.86 c 0,21.815 -17.685,39.5 -39.5,39.5 -21.815,0 -39.5,-17.685 -39.5,-39.5 0,-21.815 17.685,-39.5 39.5,-39.5 21.815,0 39.5,17.685 39.5,39.5 z"
         style="color:#000000;fill:#e6e6e6"
         transform="translate(211,-44)"
         inkscape:connector-curvature="0" />
      <path
         id="path3778"
         d="m 4,484.86 c 0,21.815 -17.685,39.5 -39.5,39.5 -21.815,0 -39.5,-17.685 -39.5,-39.5 0,-21.815 17.685,-39.5 39.5,-39.5 21.815,0 39.5,17.685 39.5,39.5 z"
         style="color:#000000"
         transform="translate(209,-46)"
         inkscape:connector-curvature="0" />
      <path
         id="path3782"
         d="m 184,406.36 c -5.1935,-9.1727 -29.246,1.9072 -36,10 -6.041,7.2384 -18.13,33.84 -6,38 10.443,3.5816 10.761,-23.018 16,-29 6.0742,-6.9357 30.542,-10.977 26,-19 z"
         inkscape:connector-curvature="0"
         style="fill:#ffffff;stroke:#000000;stroke-width:1px;filter:url(#filter3812)" />
    </g>
  </g>
  <metadata
     id="metadata39">
    <rdf:RDF>
      <cc:Work>
        <dc:format>image/svg+xml</dc:format>
        <dc:type
           rdf:resource="http://purl.org/dc/dcmitype/StillImage" />
        <cc:license
           rdf:resource="http://creativecommons.org/licenses/publicdomain/" />
        <dc:publisher>
          <cc:Agent
             rdf:about="http://openclipart.org/">
            <dc:title>Openclipart</dc:title>
          </cc:Agent>
        </dc:publisher>
        <dc:title>Door</dc:title>
        <dc:date>2013-11-01T08:56:35</dc:date>
        <dc:description>Wood frame, four panel door</dc:description>
        <dc:source>https://openclipart.org/detail/188198/door-by-algotruneman-188198</dc:source>
        <dc:creator>
          <cc:Agent>
            <dc:title>algotruneman</dc:title>
          </cc:Agent>
        </dc:creator>
        <dc:subject>
          <rdf:Bag>
            <rdf:li>access</rdf:li>
            <rdf:li>door</rdf:li>
            <rdf:li>entry</rdf:li>
            <rdf:li>house</rdf:li>
          </rdf:Bag>
        </dc:subject>
      </cc:Work>
      <cc:License
         rdf:about="http://creativecommons.org/licenses/publicdomain/">
        <cc:permits
           rdf:resource="http://creativecommons.org/ns#Reproduction" />
        <cc:permits
           rdf:resource="http://creativecommons.org/ns#Distribution" />
        <cc:permits
           rdf:resource="http://creativecommons.org/ns#DerivativeWorks" />
      </cc:License>
    </rdf:RDF>
  </metadata>
</svg>
