<?xml version="1.0" encoding="UTF-8" standalone="no"?>
<!-- Created with Inkscape (http://www.inkscape.org/) -->

<svg
   xmlns:dc="http://purl.org/dc/elements/1.1/"
   xmlns:cc="http://creativecommons.org/ns#"
   xmlns:rdf="http://www.w3.org/1999/02/22-rdf-syntax-ns#"
   xmlns:svg="http://www.w3.org/2000/svg"
   xmlns="http://www.w3.org/2000/svg"
   xmlns:sodipodi="http://sodipodi.sourceforge.net/DTD/sodipodi-0.dtd"
   xmlns:inkscape="http://www.inkscape.org/namespaces/inkscape"
   width="33.072918mm"
   height="42.333332mm"
   viewBox="0 0 33.072918 42.333332"
   version="1.1"
   id="svg78"
   inkscape:version="0.92.5 (2060ec1f9f, 2020-04-08)"
   sodipodi:docname="drawing.svg">
  <defs
     id="defs72" />
  <sodipodi:namedview
     id="base"
     pagecolor="#ffffff"
     bordercolor="#666666"
     borderopacity="1.0"
     inkscape:pageopacity="0.0"
     inkscape:pageshadow="2"
     inkscape:zoom="2.8"
     inkscape:cx="86.664528"
     inkscape:cy="57.565322"
     inkscape:document-units="mm"
     inkscape:current-layer="layer1"
     showgrid="false"
     inkscape:window-width="1920"
     inkscape:window-height="1020"
     inkscape:window-x="0"
     inkscape:window-y="28"
     inkscape:window-maximized="1" />
  <metadata
     id="metadata75">
    <rdf:RDF>
      <cc:Work
         rdf:about="">
        <dc:format>image/svg+xml</dc:format>
        <dc:type
           rdf:resource="http://purl.org/dc/dcmitype/StillImage" />
        <dc:title></dc:title>
      </cc:Work>
    </rdf:RDF>
  </metadata>
  <g
     inkscape:label="Layer 1"
     inkscape:groupmode="layer"
     id="layer1"
     transform="translate(-67.374255,-135.98215)">
    <g
       id="g3505"
       transform="matrix(0.16038946,0,0,0.18683189,64.199155,133.99324)">
      <path
         id="path32"
         sodipodi:nodetypes="ccccccccc"
         style="fill:#aea199"
         d="m 120.88,81.977 14.33,0.116 -5.54,-10.698 12.61,9.931 2.28,-10.442 8.14,7.279 c 9.59,-20.236 17.27,-42.732 9.3,-65.023 -15,5.931 -27.3,34.224 -33.17,48.395 -2.29,5.521 -6.87,13.932 -7.95,20.442 z"
         inkscape:connector-curvature="0" />
      <path
         id="path776"
         sodipodi:nodetypes="cccc"
         style="fill:#e6c75b"
         d="m 133.4,74.186 2.64,10.93 5.17,-1.231 z"
         inkscape:connector-curvature="0" />
      <path
         id="path806"
         sodipodi:nodetypes="ccccccc"
         style="fill:#f7cc30"
         d="m 146.19,73.233 c -2.12,3.111 -4.11,11.482 -7.93,10.697 l -22.03,-0.488 c 6.8,4.643 6.99,9.983 14.96,9.674 l 5.39,0.512 -15.67,-0.558 c 6.97,20.11 48.19,-13.134 25.28,-19.837 z"
         inkscape:connector-curvature="0" />
      <path
         id="path154"
         sodipodi:nodetypes="cccsscscccsccscscscsccc"
         style="fill:#aea199"
         d="m 116.56,94.256 -6.79,5.794 9.04,7.25 c 3.37,-1.37 9.08,-4.6 11.32,-1.31 3.43,5.05 2.53,22.03 -4.48,22.14 -7.28,0.11 -9.96,-6.84 -25.46,-7.34 1.87,5.31 -5.353,14.18 -9.12,17.17 -9.75,7.76 -21.665,16 -34.558,16.11 -3.123,15.21 6.647,30.28 16.628,41.4 7.557,-11.07 22.738,-27.27 36.42,-30.52 8.36,1.08 16.02,0.14 23.81,-3 8.64,-3.48 11.46,-11.11 19.33,-15.09 -4.53,12.21 -22.47,18.16 -33.44,19.02 4.93,17.31 14.49,32.04 15.65,48.93 0.4,5.81 2.53,11.15 -1.84,15.82 8.89,5.97 21.72,6.9 31.93,6.53 17.97,-0.65 33.68,1.12 51.44,-7.9 -24.32,-21.49 -38.96,-52.08 -48.46,-79.77 -3.7,-10.78 -8.18,-23.64 -2.91,-34.73 5.07,-10.67 16.58,-17.927 24.93,-25.85 16.27,-15.447 23.57,-29.647 23.12,-51.468 -19.73,4.791 -43.77,23.656 -55.28,39.884 -11.45,12.992 -22.62,29.764 -41.28,16.93 z"
         inkscape:connector-curvature="0" />
      <path
         id="path4687"
         sodipodi:nodetypes="czcccccz"
         style="fill:#e49985;fill-rule:evenodd;stroke-width:0"
         d="m 151.07,97.674 c 2.68,-3.028 10.05,-19.178 22.51,-29.395 12.47,-10.217 20.65,-16.496 33.68,-22.139 -1.49,7.069 -3.35,14.883 -8,23.441 -5.34,6.078 -10.67,12.341 -16,18.419 -5.71,5.085 -11.04,11.659 -16.75,16.74 -4.09,-0.37 -5.21,2.42 -15.07,-1.86 -1.36,-2.17 -3.22,-1.98 -0.37,-5.206 z"
         inkscape:connector-curvature="0" />
      <path
         id="path1198"
         sodipodi:nodetypes="ccsssc"
         style="fill:#0d0805"
         d="m 119,107 c -4.18,-9.404 -14.79,-8.315 -18.39,1.75 -2.4,6.72 2.35,24.92 13.5,16.38 3.6,-2.76 -1.64,1.78 6.1,4.45 5.32,1.84 7.11,-1.38 9.15,-3.69 8.57,-9.67 4.88,-28.948 -10.36,-18.89 z"
         inkscape:connector-curvature="0" />
      <path
         id="path1250"
         style="fill:#ffffff"
         d="m 109.02,102.8 c -8.83,2.71 -8.46,24.69 0.68,22.37 5.02,-1.28 10.46,-25.788 -0.68,-22.37 z"
         inkscape:connector-curvature="0" />
      <path
         id="path1318"
         sodipodi:nodetypes="cccccc"
         style="fill:#e6c75b"
         d="m 176.71,103.82 -6.68,6.86 4.29,0.29 2.65,-1.9 3.87,-0.34 z"
         inkscape:connector-curvature="0" />
      <path
         id="path1336"
         sodipodi:nodetypes="csc"
         style="fill:#ffffff"
         d="m 125.98,106.72 c -8.26,1.13 -14.45,21.62 -3.22,20.82 8.52,-0.61 13.48,-22.22 3.22,-20.82 z"
         inkscape:connector-curvature="0" />
      <path
         id="path1350"
         style="fill:#a98f2e"
         d="m 177,106 1,1 z"
         inkscape:connector-curvature="0" />
      <path
         id="path1426"
         sodipodi:nodetypes="ccccccccccccccccccc"
         style="fill:#f7cc30"
         d="m 171.18,108.16 c -18.07,28.06 12.02,78.69 28.54,103.19 l 0.57,-4.81 12.1,-0.05 -8.1,-9.73 -2.4,-8.15 -9.6,-7.16 6.21,-1.74 -13.26,-12.05 8.97,1.58 -13.58,-13.53 9.24,0.92 -12.16,-7.55 9.68,-3.95 c -4.68,-3.06 -7.24,-7.44 -4.18,-10.18 l -8.5,-6.69 8.29,0.71 c -2.77,-5.41 -17.04,-13.16 -3,-11.13 z"
         inkscape:connector-curvature="0" />
      <path
         id="path1440"
         style="fill:#0d0805"
         d="m 106.62,111.11 c -4.35,2.94 0.15,9.78 4.5,6.83 4.35,-2.94 -0.15,-9.78 -4.5,-6.83 z"
         inkscape:connector-curvature="0" />
      <path
         id="path1466"
         style="fill:#423d34"
         d="m 177,112 1,1 z"
         inkscape:connector-curvature="0" />
      <path
         id="path2146"
         sodipodi:nodetypes="ccsscssc"
         style="fill:#fbd29e"
         d="m 52.884,190.86 c -3.483,5.36 -7.108,5.99 -12.744,7.33 7.203,14.2 31.569,5.93 33.118,-7.19 0.662,-5.61 -7.75,-12.05 -10.947,-16 -6.208,-7.68 -5.85,-10.92 -4.311,-20 -10.177,-2.05 -20.086,-1.53 -27.073,3.93 -11.284,8.82 -12.192,31.7 4.073,36.21 6.454,1.78 12.335,-1.32 17.884,-4.28 z"
         inkscape:connector-curvature="0" />
      <path
         id="path2404"
         style="fill:#0d0805"
         d="m 37.316,172.42 c 1.597,6.16 2.946,7.68 8.42,7.95 -1.597,-6.17 -2.946,-7.68 -8.42,-7.95 z"
         inkscape:connector-curvature="0" />
      <path
         id="path3184"
         sodipodi:nodetypes="cczz"
         style="fill:#e6c75b"
         d="m 194.87,203.82 c -4.56,0.99 8.43,12.09 8.43,12.09 0,0 12.6,-1.43 10.05,-4.62 -2.56,-3.22 -13.78,-8.5 -18.48,-7.47 z"
         inkscape:connector-curvature="0" />
      <path
         id="path3228"
         sodipodi:nodetypes="csccc"
         style="fill:#e6c75b"
         d="m 203.03,215.26 c 0,0 5.31,8.42 9.97,10.66 4.66,2.24 8.66,-1.71 8.66,-1.71 l -14.13,-10.13 z"
         inkscape:connector-curvature="0" />
      <path
         id="path1722"
         style="fill:#0d0805"
         d="m 100,127 c -9.36,9.17 -22.915,21.3 -36,24.48 -10.171,2.46 -21.283,-2.03 -30.996,2.76 -11.883,5.86 -17.526,25.9 -9.366,36.72 3.559,4.71 8.908,5.06 13.272,8.47 5.133,4.01 8.025,8.11 15.09,8.47 23.654,1.18 33.347,-32.74 54,-40.93 9.86,-3.91 13.47,5.64 16.58,13.03 6.91,16.47 10.42,33.16 10.42,51 5.02,-3.25 2.96,-11.81 2.28,-17 -2.26,-17.44 -10.74,-31.42 -15.28,-48 12.91,-0.01 29.46,-6.68 34,-20 -8.35,2.54 -13.36,12.4 -22,15.79 -13.17,5.16 -24.24,-0.84 -37,8.5 -11.824,8.65 -18.363,22.6 -30.001,30.92 -8.45,6.04 -17.767,5.37 -23.999,-3.21 4.887,-1.13 9.471,-2.42 12,-7 -6.353,1.09 -12.362,5.42 -19,3.35 -16.112,-5.03 -12.845,-26 -2.907,-35.14 9.065,-8.33 19.332,-3.16 29.907,-4.5 9.745,-1.23 18.121,-7.29 26,-12.73 4.466,-3.09 14.25,-8.74 13,-14.98 z"
         inkscape:connector-curvature="0" />
      <path
         id="path4681"
         style="fill:#0d0805"
         d="m 121.84,114.72 c -4.35,2.95 0.16,9.78 4.5,6.84 4.35,-2.95 -0.15,-9.78 -4.5,-6.84 z"
         inkscape:connector-curvature="0" />
      <path
         id="path12"
         style="fill:#0d0805"
         d="m 122,78 c 5.06,-5.789 6.26,-15.994 9.76,-23 7.69,-15.38 17.72,-30.221 30.24,-42 l 2.79,19 -13.79,43 -7,-5 -2,11 c -3.7,-5.033 -6.4,-9.265 -13,-10 l 6,11 h -22 c 1.58,5.05 6.4,6.216 11,8 l -8,2 c 1.66,5.306 6.96,6.804 12,8 l -7,-7 17,1 -13,-3 c -0.23,-4.594 -3.94,-5.824 -8,-7 l 19,1 -2,-10 6,9 h 2 l 4,-9 3,6 1,-5 c 13.52,-5.816 17.06,-35.046 17,-48 -0.02,-4.411 0.14,-14.394 -4.42,-16.914 C 157.28,8.1551 150.33,20.684 147.88,24 136.63,39.261 123.7,58.532 122,78 Z"
         inkscape:connector-curvature="0" />
      <path
         id="path120"
         sodipodi:nodetypes="czzcsscscccccccsscccccccccccccccccccccccccccccccccccccccccccccsc"
         style="fill:#0d0805"
         d="m 143,96 c 0,0 2.22,-1.642 12.46,-15.644 C 165.79,66.232 180.31,56.979 194,47.692 208.04,38.165 213,38 213,38 c 0,21.764 -7.11,35.692 -23,50.961 -10.62,10.202 -27.38,18.299 -27.87,35.039 -0.28,9.37 3.62,19.26 6.54,28 6.95,20.87 15.77,40.66 28,59 4.79,7.19 21.34,28.22 29.33,13 l -14,-8 6,-1 c -3.54,-5.78 -10.74,-6.5 -17,-7 l 10,4 -4,1 c 1.4,6.86 7.51,9.84 14,11 -9.17,9.06 -22.57,-15.56 -26.58,-22 -3.41,-5.49 -6.28,-11.22 -9.17,-17 -11.01,-22.02 -33.1,-62.01 -8.25,-81 l 3,4 -7,2 7,8 -8,-1 11,12 -9,-1 9,7 -6,2 10,8 -10,4 12,7 -10,-1 15,14 -10,-2 14,13 -7,1 11,8 h -5 l 6,7 -6,-1 15,11 -13,-3 16,6 c -1.62,-8.36 -7.69,-13.01 -13,-19 h 5 l -13,-9 7,-1 -11,-9 h 7 l -10,-13 10,3 -11,-14 4,-1 -8,-8 h 5 l -9,-7 7,-1 c -1.95,-5.16 -7.2,-7.73 -12,-10 l 13,1 -10,-10 10,-2 v -2 l -8,-3 c 19.77,-19.366 43.96,-39.222 36,-70 -6.83,1.321 -13.04,6.36 -19,9.861 C 176.76,54.586 149.24,74.789 143,96 Z"
         inkscape:connector-curvature="0" />
      <path
         id="path4683"
         style="fill:#0d0805"
         d="m 28.853,163.64 c 1.148,5.76 2.117,7.17 6.052,7.42 -1.148,-5.75 -2.117,-7.17 -6.052,-7.42 z"
         inkscape:connector-curvature="0" />
      <path
         id="path222"
         sodipodi:nodetypes="cscsszzcsc"
         style="fill:#0d0805"
         d="m 151,98 c 6.65,-5.511 10.37,-14.503 16.17,-21 11.13,-12.462 25.15,-22.184 39.83,-30 -3.61,19.155 -15.27,30.855 -29,43.961 -3.92,3.743 -9.75,12.599 -15.02,14.109 -3.69,1.07 -8.19,-0.7 -11.98,-3.07 -3.71,-2.321 10.61,11.15 15.3,6.07 4.79,-5.18 42.7,-33.563 42.7,-64.07 -18.39,3.547 -38.64,23.318 -48.96,38 -3.47,4.932 -7.65,10.074 -9.04,16 z"
         inkscape:connector-curvature="0" />
    </g>
  </g>
</svg>
