<?xml version="1.0" encoding="UTF-8" standalone="no"?>
<svg
   xmlns:dc="http://purl.org/dc/elements/1.1/"
   xmlns:cc="http://creativecommons.org/ns#"
   xmlns:rdf="http://www.w3.org/1999/02/22-rdf-syntax-ns#"
   xmlns:svg="http://www.w3.org/2000/svg"
   xmlns="http://www.w3.org/2000/svg"
   xmlns:sodipodi="http://sodipodi.sourceforge.net/DTD/sodipodi-0.dtd"
   xmlns:inkscape="http://www.inkscape.org/namespaces/inkscape"
   id="svg2889"
   viewBox="0 0 125 160"
   version="1.1"
   sodipodi:docname="heritage-car.svg"
   width="125"
   height="160"
   inkscape:version="0.92.5 (2060ec1f9f, 2020-04-08)">
  <sodipodi:namedview
     pagecolor="#ffffff"
     bordercolor="#666666"
     borderopacity="1"
     objecttolerance="10"
     gridtolerance="10"
     guidetolerance="10"
     inkscape:pageopacity="0"
     inkscape:pageshadow="2"
     inkscape:window-width="1920"
     inkscape:window-height="1020"
     id="namedview50"
     showgrid="false"
     inkscape:zoom="3.6875"
     inkscape:cx="32"
     inkscape:cy="86.237288"
     inkscape:window-x="0"
     inkscape:window-y="28"
     inkscape:window-maximized="1"
     inkscape:current-layer="svg2889" />
  <title
     id="title3137">netalloy heritage car</title>
  <defs
     id="defs2891">
    <linearGradient
       id="linearGradient3127"
       x1="403.07999"
       gradientUnits="userSpaceOnUse"
       y1="262.70001"
       gradientTransform="matrix(0.125,0,0,0.125,-47.801,-9.1391)"
       x2="413.44"
       y2="303.48999">
      <stop
         id="stop3889"
         stop-color="#b3b3b3"
         offset="0" />
      <stop
         id="stop3891"
         stop-color="#b3b3b3"
         stop-opacity="0"
         offset="1" />
    </linearGradient>
    <linearGradient
       id="linearGradient3129"
       x1="418.04999"
       gradientUnits="userSpaceOnUse"
       y1="350.23001"
       gradientTransform="matrix(0.125,0,0,0.13086,-47.801,-11.406)"
       x2="451.45001"
       y2="247.73">
      <stop
         id="stop3945"
         stop-color="#d3bc5f"
         offset="0" />
      <stop
         id="stop3947"
         stop-color="#d3bc5f"
         stop-opacity="0"
         offset="1" />
    </linearGradient>
    <linearGradient
       id="linearGradient3131"
       x1="629.95001"
       gradientUnits="userSpaceOnUse"
       y1="307.62"
       gradientTransform="matrix(0.125,0,0,0.125,-47.801,-9.1391)"
       x2="421.01001"
       y2="308.64001">
      <stop
         id="stop3951"
         stop-color="#c8ab37"
         offset="0" />
      <stop
         id="stop3953"
         stop-color="#c8ab37"
         stop-opacity="0"
         offset="1" />
    </linearGradient>
    <linearGradient
       id="linearGradient3133"
       x1="330.51999"
       gradientUnits="userSpaceOnUse"
       y1="292.64999"
       gradientTransform="matrix(0.125,0,0,0.125,-47.801,-9.1391)"
       x2="349.47"
       y2="310.85999">
      <stop
         id="stop3913"
         stop-color="#999"
         offset="0" />
      <stop
         id="stop3915"
         stop-color="#999"
         stop-opacity="0"
         offset="1" />
    </linearGradient>
    <linearGradient
       id="linearGradient3135"
       x1="291.57999"
       gradientUnits="userSpaceOnUse"
       y1="270.87"
       gradientTransform="matrix(0.125,0,0,0.125,-47.801,-9.1391)"
       x2="301.42001"
       y2="278.29001">
      <stop
         id="stop4037"
         stop-color="#c8c4b7"
         offset="0" />
      <stop
         id="stop4039"
         stop-color="#c8c4b7"
         stop-opacity="0"
         offset="1" />
    </linearGradient>
  </defs>
  <g
     id="layer1"
     transform="matrix(2.4186587,0,0,4.4572072,-14.346204,-50.110252)">
    <g
       id="g3099"
       transform="matrix(0.89446,0,0,0.89446,20.293,-0.97287)">
      <path
         id="path3645"
         d="m 17.358,26.789 c -7.6234,0.0074 -18.92,-0.95888 -14.928,8.1138 2.2655,2.9528 0.39679,6.1744 -3.5431,5.0764 -4.0549,-0.7389 -8.503,-0.72966 -7.1158,-4.491 0.91072,-4.0861 -4.1371,-4.9374 -5.3677,-8.0362 -0.6136,-5.0356 -1.3706,-7.797 6.9209,-7.6175 8.5878,-0.40279 17.557,-1.487 25.278,1.5093 -1.9982,1.0928 -0.61011,2.9828 -1.2442,5.4451 z"
         inkscape:connector-curvature="0"
         style="stroke-width:0" />
      <path
         id="path3787"
         d="m 17.192,22.611 0.07855,3.6134 c -6.621,-0.96 -11.831,0.178 -17.23,3.347 l -1.9792,-7.469 c 6.7188,-0.883 11.911,-0.745 19.13,0.509 z"
         inkscape:connector-curvature="0"
         style="fill:#333333;stroke-width:0" />
      <path
         id="path3647"
         transform="matrix(-0.11385,-0.034121,0,0.10409,61.04,13.142)"
         d="m 672.57,434.88 c 0,29.576 -14.308,53.552 -31.958,53.552 -17.65,0 -31.958,-23.976 -31.958,-53.552 0,-29.576 14.308,-53.552 31.958,-53.552 17.65,0 31.958,23.976 31.958,53.552 z"
         inkscape:connector-curvature="0"
         style="stroke-width:0" />
      <path
         id="path2863"
         transform="matrix(-0.091989,0,0,0.088942,75.728,2.0641)"
         d="m 481.97,432 c 0,41.025 -23.847,74.282 -53.264,74.282 -29.417,0 -53.264,-33.257 -53.264,-74.282 0,-41.025 23.847,-74.282 53.264,-74.282 29.417,0 53.264,33.257 53.264,74.282 z"
         inkscape:connector-curvature="0"
         style="fill:#241f1c;stroke-width:0" />
      <path
         id="path2865"
         d="m 481.97,432 c 0,41.025 -23.847,74.282 -53.264,74.282 -29.417,0 -53.264,-33.257 -53.264,-74.282 0,-41.025 23.847,-74.282 53.264,-74.282 29.417,0 53.264,33.257 53.264,74.282 z"
         transform="matrix(-0.072401,0,0,0.070706,66.353,9.8234)"
         inkscape:connector-curvature="0"
         style="fill:#c8c4b7;stroke:#2e2727;stroke-width:4.95230007;stroke-linecap:round" />
      <path
         id="path2861"
         transform="matrix(-0.10097,0,0,0.082755,79.072,5.9657)"
         d="m 699.63,443.23 c 0,42.774 -26.554,77.449 -59.31,77.449 -32.756,0 -59.31,-34.675 -59.31,-77.449 0,-42.774 26.554,-77.449 59.31,-77.449 32.756,0 59.31,34.675 59.31,77.449 z"
         inkscape:connector-curvature="0"
         style="fill:#241f1c;stroke-width:0" />
      <path
         id="path2859"
         d="m 672.57,434.88 c 0,29.576 -14.308,53.552 -31.958,53.552 -17.65,0 -31.958,-23.976 -31.958,-53.552 0,-29.576 14.308,-53.552 31.958,-53.552 17.65,0 31.958,23.976 31.958,53.552 z"
         transform="matrix(-0.13334,0,0,0.10087,98.237,-1.2802)"
         inkscape:connector-curvature="0"
         style="fill:#e3e2db;stroke:#2e2727;stroke-width:3.05539989;stroke-linecap:round" />
      <path
         id="path3643"
         d="m 16.696,23.109 0.07446,3.2517 c -6.276,-0.864 -11.142,-0.416 -16.26,2.436 l -1.9482,-6.146 c 6.369,-0.795 11.291,-0.67 18.134,0.458 z"
         inkscape:connector-curvature="0"
         style="fill:url(#linearGradient3127);stroke-width:0" />
      <path
         id="path3641"
         d="M 35.272,29.735 C 25.069,28.172 9.509,24.067 2.662,28.85 c -3.0303,2.1171 1.1429,7.1351 0.48638,9.8016 -0.36717,1.4912 4.4153,-2.5299 6.8184,-2.983 3.9515,-0.74501 8.6632,0.3003 10.906,3.5051 1.5131,-4.2014 8.6895,-8.8491 14.399,-9.4392 z"
         inkscape:connector-curvature="0"
         style="fill:url(#linearGradient3129);stroke:#937b30;stroke-width:0.44290999" />
      <path
         id="path3763"
         d="M 35.325,30.205 C 28.085,27.013 12.461,26.737 4.872,28.46 l 18.52,3.0129 11.933,-1.268 z"
         inkscape:connector-curvature="0"
         style="fill:url(#linearGradient3131);stroke:#bd9f5a;stroke-width:0.13287" />
      <path
         id="path3765"
         d="m 33.047,42.541 c 2.1546,-0.05835 4.3063,-6.055 4.8963,-7.8935 0.55229,-1.7208 -2.7097,-4.4947 -2.7097,-4.4947 -6.2113,1.277 -19.453,0.54677 -17.107,5.6102 1.5279,3.5283 3.4153,5.2104 2.5176,8.728 1.6795,-0.95506 9.3937,-1.8256 12.402,-1.95 z"
         inkscape:connector-curvature="0"
         style="fill:#241f1c;stroke-width:0" />
      <path
         id="path2855"
         transform="matrix(-0.11429,0,0,0.12931,69.596,-12.78)"
         d="m 333.58,353.4 c 0,12.267 -9.4876,22.211 -21.191,22.211 -11.704,0 -21.191,-9.9442 -21.191,-22.211 0,-12.2668 9.4876,-22.211 21.191,-22.211 11.704,0 21.191,9.9442 21.191,22.211 z"
         inkscape:connector-curvature="0"
         style="fill:#ffeeaa;stroke-width:0" />
      <path
         id="path3687"
         d="M 32.039,36.203 Z"
         inkscape:connector-curvature="0"
         style="fill:none;stroke-width:0" />
      <path
         id="path3789"
         d="m -2.804,22.695 1.7407,7.0237 -6.1076,-1.6852 0.22394,-4.7824 4.143,-0.55609 z"
         inkscape:connector-curvature="0"
         style="fill:url(#linearGradient3133);stroke:#241a1a;stroke-width:0.31004" />
      <path
         id="path3791"
         d="m -7.8835,23.51 v 4.2753 l -4.4789,-1.0126 0.42324,-2.5502 4.0556,-0.71255 z"
         inkscape:connector-curvature="0"
         style="fill:url(#linearGradient3135);stroke-width:0" />
      <path
         id="path3681"
         d="M 20.228,37.852 C 16.973,34.561 8.942,33.475 2.711,38.517 L -7.295,36.019 c -0.23902,-0.29424 0.22079,0.59646 -0.058539,1.8819 l 14.944,4.1515 c 1.1989,-9.4066 11.394,-6.6076 11.874,-3.2513 0.10947,0.76459 0.79401,-0.91732 0.76263,-0.94905 z"
         inkscape:connector-curvature="0"
         style="fill:#decd87;stroke:#c5a34d;stroke-width:0.70201999" />
      <path
         id="path3801"
         d="m 34.77,30.197 c -4.9439,-0.19599 -3.8674,4.3865 -1.0738,5.6974 -0.0784,0.0672 -3.558,-1.0084 -3.442,-3.108 0.1816,-3.2882 4.4683,-3.0762 4.5159,-2.5895 z"
         inkscape:connector-curvature="0"
         style="stroke:#000000;stroke-width:0.62007999" />
      <path
         id="path3803"
         d="m 672.57,434.88 c 0,29.576 -14.308,53.552 -31.958,53.552 -17.65,0 -31.958,-23.976 -31.958,-53.552 0,-29.576 14.308,-53.552 31.958,-53.552 17.65,0 31.958,23.976 31.958,53.552 z"
         transform="matrix(-0.088983,-0.026668,0,0.090446,44.411,14.562)"
         inkscape:connector-curvature="0"
         style="fill:#c8c4b7;stroke:#2e2727;stroke-width:4.93709993;stroke-linecap:round" />
      <path
         id="path3871"
         d="m 333.58,353.4 c 0,12.267 -9.4876,22.211 -21.191,22.211 -11.704,0 -21.191,-9.9442 -21.191,-22.211 0,-12.2668 9.4876,-22.211 21.191,-22.211 11.704,0 21.191,9.9442 21.191,22.211 z"
         transform="matrix(-0.11429,0,0,0.12931,57.647,-11.916)"
         inkscape:connector-curvature="0"
         style="fill:#ffeeaa;stroke:#2e2727;stroke-width:3.64319992;stroke-linecap:round" />
      <path
         id="path3873"
         d="M 19.514,36.203 Z"
         inkscape:connector-curvature="0"
         style="fill:none;stroke-width:0" />
      <path
         id="path3875"
         d="m 22.733,30.94 c -4.7862,-0.16514 -2.8273,4.6053 -1.2731,5.6738 -0.55875,0.41906 -3.5413,-1.0374 -3.442,-3.108 0.15774,-3.2894 4.6675,-3.0526 4.7151,-2.5658 z"
         inkscape:connector-curvature="0"
         style="stroke-width:0" />
      <rect
         id="rect3877"
         ry="2.8434999"
         rx="1.9732"
         transform="matrix(-0.25535,-0.96685,0,1,0,0)"
         height="8.0888996"
         width="3.9463"
         y="-82.216003"
         x="-119.77"
         style="fill:#504416;stroke-width:0" />
      <rect
         id="rect3879"
         transform="matrix(-0.28416,-0.95878,0,1,0,0)"
         rx="1.7732"
         ry="2.5339"
         height="7.2083001"
         width="3.5462999"
         y="-64.161003"
         x="-102.86"
         style="fill:#6c6753;stroke-width:0" />
      <rect
         id="rect3881"
         ry="2.5339"
         rx="1.7732"
         transform="matrix(-0.28416,-0.95878,0,1,0,0)"
         height="7.2083001"
         width="3.5462999"
         y="-57.756001"
         x="-96.697998"
         style="fill:#504416;stroke-width:0" />
      <rect
         id="rect3883"
         transform="matrix(-0.28416,-0.95878,0,1,0,0)"
         rx="1.7732"
         ry="2.5339"
         height="7.2083001"
         width="3.5462999"
         y="-52.695"
         x="-91.418999"
         style="fill:#6c6753;stroke-width:0" />
      <rect
         id="rect3885"
         ry="4.5355"
         rx="3.2504001"
         transform="matrix(-0.9999,0.014361,0.98949,0.1446,0,0)"
         height="12.902"
         width="6.5008001"
         y="176.89"
         x="157.96001"
         style="fill:#d3bc5f;stroke-width:0" />
    </g>
  </g>
  <metadata
     id="metadata47">
    <rdf:RDF>
      <cc:Work>
        <dc:format>image/svg+xml</dc:format>
        <dc:type
           rdf:resource="http://purl.org/dc/dcmitype/StillImage" />
        <cc:license
           rdf:resource="http://creativecommons.org/publicdomain/zero/1.0/" />
        <dc:publisher>
          <cc:Agent
             rdf:about="http://openclipart.org/">
            <dc:title>Openclipart</dc:title>
          </cc:Agent>
        </dc:publisher>
        <dc:title>netalloy heritage car</dc:title>
        <dc:date>2010-04-07T08:53:03</dc:date>
        <dc:description>automotive clipart from netalloy in public domain</dc:description>
        <dc:source>http://openclipart.org/detail/38749/netalloy-heritage-car-by-netalloy</dc:source>
        <dc:creator>
          <cc:Agent>
            <dc:title>netalloy</dc:title>
          </cc:Agent>
        </dc:creator>
        <dc:subject>
          <rdf:Bag>
            <rdf:li>automobile</rdf:li>
            <rdf:li>clip art</rdf:li>
            <rdf:li>clipart</rdf:li>
            <rdf:li>heritage car</rdf:li>
            <rdf:li>old car</rdf:li>
            <rdf:li>vintage car</rdf:li>
          </rdf:Bag>
        </dc:subject>
      </cc:Work>
      <cc:License
         rdf:about="http://creativecommons.org/publicdomain/zero/1.0/">
        <cc:permits
           rdf:resource="http://creativecommons.org/ns#Reproduction" />
        <cc:permits
           rdf:resource="http://creativecommons.org/ns#Distribution" />
        <cc:permits
           rdf:resource="http://creativecommons.org/ns#DerivativeWorks" />
      </cc:License>
    </rdf:RDF>
  </metadata>
</svg>
