<?xml version="1.0" encoding="UTF-8" standalone="no"?>
<svg
   xmlns:dc="http://purl.org/dc/elements/1.1/"
   xmlns:cc="http://creativecommons.org/ns#"
   xmlns:rdf="http://www.w3.org/1999/02/22-rdf-syntax-ns#"
   xmlns:svg="http://www.w3.org/2000/svg"
   xmlns="http://www.w3.org/2000/svg"
   xmlns:xlink="http://www.w3.org/1999/xlink"
   xmlns:sodipodi="http://sodipodi.sourceforge.net/DTD/sodipodi-0.dtd"
   xmlns:inkscape="http://www.inkscape.org/namespaces/inkscape"
   id="svg2"
   viewBox="0 0 125 200.00001"
   version="1.0"
   sodipodi:docname="Machovka_grey_car.svg"
   width="125"
   height="200"
   inkscape:version="0.92.5 (2060ec1f9f, 2020-04-08)">
  <sodipodi:namedview
     pagecolor="#ffffff"
     bordercolor="#666666"
     borderopacity="1"
     objecttolerance="10"
     gridtolerance="10"
     guidetolerance="10"
     inkscape:pageopacity="0"
     inkscape:pageshadow="2"
     inkscape:window-width="1920"
     inkscape:window-height="1020"
     id="namedview78"
     showgrid="false"
     inkscape:zoom="2.970444"
     inkscape:cx="62.210881"
     inkscape:cy="111.48746"
     inkscape:window-x="0"
     inkscape:window-y="28"
     inkscape:window-maximized="1"
     inkscape:current-layer="svg2" />
  <defs
     id="defs3">
    <linearGradient
       id="linearGradient17572"
       y2="561.51001"
       gradientUnits="userSpaceOnUse"
       y1="573.40002"
       x2="92.234001"
       x1="110.07">
      <stop
         id="stop10893"
         stop-color="#999"
         offset="0" />
      <stop
         id="stop10895"
         stop-color="#999"
         stop-opacity="0"
         offset="1" />
    </linearGradient>
    <linearGradient
       inkscape:collect="always"
       xlink:href="#linearGradient17572"
       id="linearGradient80"
       gradientUnits="userSpaceOnUse"
       x1="110.07"
       y1="573.40002"
       x2="92.234001"
       y2="561.51001" />
    <linearGradient
       inkscape:collect="always"
       xlink:href="#linearGradient17572"
       id="linearGradient82"
       gradientUnits="userSpaceOnUse"
       x1="110.07"
       y1="573.40002"
       x2="92.234001"
       y2="561.51001" />
  </defs>
  <g
     id="layer2"
     transform="matrix(0.15471033,0,0,0.16933598,-17.739261,37.088274)">
    <g
       id="g17642">
      <path
         id="path17495"
         d="m 915.83,454.81 2.79,83.76 -4.19,65.61 c 0,0 -2.79,60.03 -41.88,60.03 -39.09,0 -78.18,13.96 -76.78,-47.46 1.39,-61.43 115.87,-160.55 120.06,-161.94 z"
         inkscape:connector-curvature="0"
         style="fill-rule:evenodd;stroke:#000000;stroke-width:1px" />
      <path
         id="path17493"
         d="m 125.04,454.09 -2.79,83.77 4.19,65.61 c 0,0 2.79,60.03 41.88,60.03 39.09,0 78.18,13.96 76.78,-47.47 C 243.7,554.61 129.23,455.49 125.04,454.09 Z"
         inkscape:connector-curvature="0"
         style="fill-rule:evenodd;stroke:#000000;stroke-width:1px" />
      <path
         id="path13795"
         d="m 559.86,623.71 -248.61,2.93 -94.94,-5.87 c 0,0 -50.9,5.87 -72.43,-26.43 -21.53,-32.3 -27.41,-148.77 -27.41,-148.77 0,0 -14.68,-79.28 49.92,-124.3 64.6,-45.03 53.83,-33.28 53.83,-33.28 l 34.26,-64.6 c 0,0 34.75,-65.09 71.45,-71.45 55.53,-9.63 104.73,-9.79 104.73,-9.79 0,0 194.55,-16.63 299.99,8.02 19.21,4.49 65.09,75.18 65.09,75.18 l 31.32,57.74 c 23.81,9.74 35.49,16.09 56.9,33.85 0,0 38.43,21.53 38.04,98.29 -0.41,80.41 -12.72,177.16 -35.23,188.9 -22.52,11.75 -26.93,9.24 -42.83,10.72 -19.64,1.83 -58.19,3.79 -114.75,6.29 -56.57,2.5 -131.16,3.54 -142.91,3.54 -23.49,0 -26.42,-1.95 -26.42,-0.97 z"
         inkscape:connector-curvature="0"
         style="fill:#999999;fill-rule:evenodd;stroke:#000000;stroke-width:1px" />
      <g
         id="g10918">
        <g
           id="g10901">
          <path
             id="path9117"
             d="m 232.58,576.07 a 27.88,25.793 0 1 1 -55.76,0 27.88,25.793 0 1 1 55.76,0 z"
             transform="matrix(0.9325,0,0,0.98484,31.858,3.814)"
             inkscape:connector-curvature="0"
             style="stroke:#d0d0d0;stroke-width:2.69700003" />
          <path
             id="path9119"
             d="m 121.66,569.95 a 15.357,16.997107 0 1 1 -30.714,0 15.357,16.997107 0 1 1 30.714,0 z"
             transform="matrix(1.6214,0,0,1.4298,50.538,-243.64)"
             inkscape:connector-curvature="0"
             style="fill:url(#linearGradient80);stroke-width:0" />
          <path
             id="path10899"
             d="m 82.001,544.61 a 2.2365,2.0873933 0 1 1 -4.473,0 2.2365,2.0873933 0 1 1 4.473,0 z"
             transform="matrix(2.7333,0,0,2.7143,7.8522,-908.27)"
             inkscape:connector-curvature="0"
             style="stroke-width:0" />
        </g>
        <path
           id="path10906"
           d="m 244.6,544.07 8.15,11.05 2.71,6.01 1.16,4.26 h 87.22 l -6.2,-20.16 z"
           inkscape:connector-curvature="0"
           style="fill-rule:evenodd;stroke:#000000;stroke-width:1px" />
        <path
           id="path10908"
           d="m 256.62,569.85 89.35,1.74 6.21,13.76 5.81,9.31 -104.08,-1.36 1.94,-13.57 z"
           inkscape:connector-curvature="0"
           style="fill-rule:evenodd;stroke:#000000;stroke-width:1px" />
      </g>
      <path
         id="path10929"
         d="m 637.09,603.26 -109.67,1.28 H 403.45 l 8.94,6.39 2.39,2.46 4.21,1.96 5.65,0.25 79.97,-0.19 0.9,0.16 22.34,-0.19 7.3,-0.03 0.31,-0.06 80.57,-0.72 5.68,-0.34 4.14,-2 2.36,-2.52 z"
         inkscape:connector-curvature="0"
         style="fill-rule:evenodd;stroke:#000000;stroke-width:1.03610003px" />
      <path
         id="path10937"
         d="m 530.19,352.91 c -2.77,-0.01 -5.38,0.01 -7.81,0.06 -1.22,0.02 -2.44,0.05 -3.66,0.09 h -1.03 c -38.92,0 -123.6,6.97 -165.31,15.69 -12.07,2.52 -7.27,64.27 -0.82,84.66 5.03,15.9 5.46,53.5 39.03,65.75 21.03,7.67 82.38,8.96 122.35,9.12 h 0.28 c 1.84,0.03 3.67,0.02 5.5,0 1.28,0 2.78,0.03 4,0.03 3.9,0 7.83,-0.12 11.75,-0.34 39.95,-0.97 97.88,-3.48 118.03,-11.25 33.35,-12.86 33.07,-50.48 37.81,-66.47 6.08,-20.5 9.77,-82.32 -2.34,-84.63 -39.25,-7.45 -116.25,-12.68 -157.78,-12.71 z"
         inkscape:connector-curvature="0"
         style="stroke-width:0" />
      <g
         id="g13873">
        <path
           id="path11844"
           d="m 144.28,458.2 c 44.62,0.77 89.24,2.51 133.87,1.4 18.53,-0.21 35.06,-0.43 53.59,-0.64 10.24,2.52 14.94,10.54 16.25,20.55 0.24,6.87 7.83,20.03 -1.73,22.28 -57.95,-0.58 -113.98,-0.79 -171.94,-2.17 -9.29,-0.61 -18.66,-1.71 -27.2,-5.63 -7.75,-4.94 -5.36,-15.83 -5.6,-23.5 0.27,-4.11 1.87,-8.26 2.76,-12.29 z"
           inkscape:connector-curvature="0"
           style="fill-rule:evenodd;stroke:#000000;stroke-width:1px" />
        <rect
           id="rect11865"
           transform="rotate(-23.3)"
           height="46.320999"
           width="2.6578"
           y="495.56"
           x="-9.9678001"
           style="fill:#bdb7b7;stroke-width:0" />
        <rect
           id="rect12752"
           transform="rotate(-23.3)"
           height="46.320999"
           width="2.6578"
           y="501.60001"
           x="5.0026999"
           style="fill:#bdb7b7;stroke-width:0" />
        <rect
           id="rect12754"
           transform="rotate(-23.3)"
           height="46.320999"
           width="2.6578"
           y="509.60999"
           x="22.636999"
           style="fill:#bdb7b7;stroke-width:0" />
        <rect
           id="rect12756"
           transform="rotate(-23.3)"
           height="46.320999"
           width="2.6578"
           y="517.31"
           x="39.574001"
           style="fill:#bdb7b7;stroke-width:0" />
        <rect
           id="rect12758"
           transform="rotate(-23.3)"
           height="46.320999"
           width="2.6578"
           y="525.57001"
           x="58.752998"
           style="fill:#bdb7b7;stroke-width:0" />
        <rect
           id="rect12760"
           transform="rotate(-23.3)"
           height="46.320999"
           width="2.6578"
           y="533.97998"
           x="78.280998"
           style="fill:#bdb7b7;stroke-width:0" />
        <rect
           id="rect12762"
           transform="rotate(-23.3)"
           height="46.320999"
           width="2.6578"
           y="542.73999"
           x="97.658997"
           style="fill:#bdb7b7;stroke-width:0" />
        <rect
           id="rect12764"
           transform="rotate(-23.3)"
           height="46.320999"
           width="2.6578"
           y="550.65002"
           x="116.99"
           style="fill:#bdb7b7;stroke-width:0" />
        <rect
           id="rect12766"
           transform="rotate(-23.3)"
           height="46.320999"
           width="2.6578"
           y="488.98001"
           x="-24.289"
           style="fill:#bdb7b7;stroke-width:0" />
        <rect
           id="rect12768"
           transform="rotate(-23.3)"
           height="46.320999"
           width="2.6578"
           y="482.32999"
           x="-38.785"
           style="fill:#bdb7b7;stroke-width:0" />
        <path
           id="rect12772"
           d="m 139.97,462.89 2.44,-1.05 15.67,34.95 -2.44,1.05 z"
           inkscape:connector-curvature="0"
           style="fill:#bdb7b7;stroke-width:0" />
      </g>
      <g
         id="g13862">
        <path
           id="path8230"
           d="m 317.14,364.43 -98.65,1.07 c -2.02,-0.31 -4.09,-0.47 -6.19,-0.47 -23.14,0 -41.92,19.77 -41.92,44.13 0,24.36 18.78,42.79 41.92,42.79 11.58,0 22.34,-3.3 30.77,-9.13 0.7,-0.48 1.37,-1.01 1.98,-1.59 l 0.41,0.76 h 84.93 l -1.55,-11.31 z"
           inkscape:connector-curvature="0"
           style="stroke:#000000;stroke-width:1.11689997" />
        <g
           id="g10910">
          <path
             id="rect1966"
             d="M 314.62,365.84 218.69,367 c -1.88,-0.27 -3.8,-0.41 -5.75,-0.41 -21.52,0 -38.97,17.06 -38.97,38.07 0,21 17.45,38.06 38.97,38.06 10.75,0 20.75,-4.01 28.59,-9.03 0.65,-0.42 1.27,-0.87 1.85,-1.38 l 0.37,0.66 h 77.44 l -1.44,-9.75 z"
             inkscape:connector-curvature="0"
             style="fill:#9b9b9b;stroke:#000000" />
          <path
             id="path6427"
             d="m 313.31,383.04 a 32.407,31.331 0 1 1 -64.81,0 32.407,31.331 0 1 1 64.81,0 z"
             transform="matrix(0.93939,0,0,1.0013,21.72,15.219)"
             inkscape:connector-curvature="0"
             style="fill:#999999;stroke:#d0d0d0;stroke-width:2.69700003" />
          <path
             id="path6429"
             d="m 315.67,398.89 c -18.12,0.19 15.86,0.2 -18.97,0.1 -6.01,-0.02 -14.07,-0.04 -24.81,-0.06 -4.49,-0.01 -10.09,-0.03 -17.11,-0.04 0,-17.31 13.64,-31.37 30.44,-31.37 16.81,0 30.45,14.06 30.45,31.37 z"
             inkscape:connector-curvature="0"
             style="fill:#2c2c2c;stroke:#d0d0d0;stroke-width:2.61570001" />
          <path
             id="path2865"
             d="m 198.48,364.62 a 26.895,26.08797 0 1 1 -53.79,0 26.895,26.08797 0 1 1 53.79,0 z"
             transform="matrix(1.3936,0,0,1.2924,-24.781,-68.161)"
             inkscape:connector-curvature="0"
             style="fill:#616161;stroke:#ffffff" />
          <path
             id="path5524"
             d="m 213.95,404.18 -26.94,20.74 24.56,-23.79 -2.16,-31.11 6,30.48 29.64,20.05 z"
             inkscape:connector-curvature="0"
             style="fill:#ffffff;stroke:#d0d0d0;stroke-width:3.23869991" />
          <path
             id="path4637"
             d="m 231.02,403.48 a 12.371,12.237 0 1 1 -24.74,0 12.371,12.237 0 1 1 24.74,0 z"
             transform="matrix(1.4622,0,0,1.3354,-106.44,-136.95)"
             inkscape:connector-curvature="0"
             style="fill:#8d8d8d;stroke:#d0d0d0;stroke-width:1.93009996" />
        </g>
        <path
           id="path13692"
           d="m 78.179,562.61 a 7.6785,6.9803818 0 1 1 -15.357,0 7.6785,6.9803818 0 1 1 15.357,0 z"
           transform="matrix(0.78509,0,0,0.7439,229.7,-38.399)"
           inkscape:connector-curvature="0"
           style="fill:#bdb7b7;stroke-width:0" />
      </g>
      <g
         id="g13887"
         transform="matrix(-1,0,0,1,1040.4,-1.4632)">
        <g
           id="g13889">
          <path
             id="path13891"
             d="m 232.58,576.07 a 27.88,25.793 0 1 1 -55.76,0 27.88,25.793 0 1 1 55.76,0 z"
             transform="matrix(0.9325,0,0,0.98484,31.858,3.814)"
             inkscape:connector-curvature="0"
             style="stroke:#d0d0d0;stroke-width:2.69700003" />
          <path
             id="path13893"
             d="m 121.66,569.95 a 15.357,16.997107 0 1 1 -30.714,0 15.357,16.997107 0 1 1 30.714,0 z"
             transform="matrix(1.6214,0,0,1.4298,50.538,-243.64)"
             inkscape:connector-curvature="0"
             style="fill:url(#linearGradient82);stroke-width:0" />
          <path
             id="path13895"
             d="m 82.001,544.61 a 2.2365,2.0873933 0 1 1 -4.473,0 2.2365,2.0873933 0 1 1 4.473,0 z"
             transform="matrix(2.7333,0,0,2.7143,7.8522,-908.27)"
             inkscape:connector-curvature="0"
             style="stroke-width:0" />
        </g>
        <path
           id="path13897"
           d="m 244.6,544.07 8.15,11.05 2.71,6.01 1.16,4.26 h 87.22 l -6.2,-20.16 z"
           inkscape:connector-curvature="0"
           style="fill-rule:evenodd;stroke:#000000;stroke-width:1px" />
        <path
           id="path13899"
           d="m 256.62,569.85 89.35,1.74 6.21,13.76 5.81,9.31 -104.08,-1.36 1.94,-13.57 z"
           inkscape:connector-curvature="0"
           style="fill-rule:evenodd;stroke:#000000;stroke-width:1px" />
      </g>
      <g
         id="g13901"
         transform="matrix(-1,0,0,1,1040.4,-1.4632)">
        <path
           id="path13903"
           d="m 144.28,458.2 c 44.62,0.77 89.24,2.51 133.87,1.4 18.53,-0.21 35.06,-0.43 53.59,-0.64 10.24,2.52 14.94,10.54 16.25,20.55 0.24,6.87 7.83,20.03 -1.73,22.28 -57.95,-0.58 -113.98,-0.79 -171.94,-2.17 -9.29,-0.61 -18.66,-1.71 -27.2,-5.63 -7.75,-4.94 -5.36,-15.83 -5.6,-23.5 0.27,-4.11 1.87,-8.26 2.76,-12.29 z"
           inkscape:connector-curvature="0"
           style="fill-rule:evenodd;stroke:#000000;stroke-width:1px" />
        <rect
           id="rect13905"
           transform="rotate(-23.3)"
           height="46.320999"
           width="2.6578"
           y="495.56"
           x="-9.9678001"
           style="fill:#bdb7b7;stroke-width:0" />
        <rect
           id="rect13907"
           transform="rotate(-23.3)"
           height="46.320999"
           width="2.6578"
           y="501.60001"
           x="5.0026999"
           style="fill:#bdb7b7;stroke-width:0" />
        <rect
           id="rect13909"
           transform="rotate(-23.3)"
           height="46.320999"
           width="2.6578"
           y="509.60999"
           x="22.636999"
           style="fill:#bdb7b7;stroke-width:0" />
        <rect
           id="rect13911"
           transform="rotate(-23.3)"
           height="46.320999"
           width="2.6578"
           y="517.31"
           x="39.574001"
           style="fill:#bdb7b7;stroke-width:0" />
        <rect
           id="rect13913"
           transform="rotate(-23.3)"
           height="46.320999"
           width="2.6578"
           y="525.57001"
           x="58.752998"
           style="fill:#bdb7b7;stroke-width:0" />
        <rect
           id="rect13915"
           transform="rotate(-23.3)"
           height="46.320999"
           width="2.6578"
           y="533.97998"
           x="78.280998"
           style="fill:#bdb7b7;stroke-width:0" />
        <rect
           id="rect13917"
           transform="rotate(-23.3)"
           height="46.320999"
           width="2.6578"
           y="542.73999"
           x="97.658997"
           style="fill:#bdb7b7;stroke-width:0" />
        <rect
           id="rect13919"
           transform="rotate(-23.3)"
           height="46.320999"
           width="2.6578"
           y="550.65002"
           x="116.99"
           style="fill:#bdb7b7;stroke-width:0" />
        <rect
           id="rect13921"
           transform="rotate(-23.3)"
           height="46.320999"
           width="2.6578"
           y="488.98001"
           x="-24.289"
           style="fill:#bdb7b7;stroke-width:0" />
        <rect
           id="rect13923"
           transform="rotate(-23.3)"
           height="46.320999"
           width="2.6578"
           y="482.32999"
           x="-38.785"
           style="fill:#bdb7b7;stroke-width:0" />
        <path
           id="path13925"
           d="m 139.97,462.89 2.44,-1.05 15.67,34.95 -2.44,1.05 z"
           inkscape:connector-curvature="0"
           style="fill:#bdb7b7;stroke-width:0" />
      </g>
      <g
         id="g13927"
         transform="matrix(-1,0,0,1,1040.4,-1.4632)">
        <path
           id="path13929"
           d="m 317.14,364.43 -98.65,1.07 c -2.02,-0.31 -4.09,-0.47 -6.19,-0.47 -23.14,0 -41.92,19.77 -41.92,44.13 0,24.36 18.78,42.79 41.92,42.79 11.58,0 22.34,-3.3 30.77,-9.13 0.7,-0.48 1.37,-1.01 1.98,-1.59 l 0.41,0.76 h 84.93 l -1.55,-11.31 z"
           inkscape:connector-curvature="0"
           style="stroke:#000000;stroke-width:1.11689997" />
        <g
           id="g13931">
          <path
             id="path13933"
             d="M 314.62,365.84 218.69,367 c -1.88,-0.27 -3.8,-0.41 -5.75,-0.41 -21.52,0 -38.97,17.06 -38.97,38.07 0,21 17.45,38.06 38.97,38.06 10.75,0 20.75,-4.01 28.59,-9.03 0.65,-0.42 1.27,-0.87 1.85,-1.38 l 0.37,0.66 h 77.44 l -1.44,-9.75 z"
             inkscape:connector-curvature="0"
             style="fill:#9b9b9b;stroke:#000000" />
          <path
             id="path13935"
             d="m 313.31,383.04 a 32.407,31.331 0 1 1 -64.81,0 32.407,31.331 0 1 1 64.81,0 z"
             transform="matrix(0.93939,0,0,1.0013,21.72,15.219)"
             inkscape:connector-curvature="0"
             style="fill:#999999;stroke:#d0d0d0;stroke-width:2.69700003" />
          <path
             id="path13937"
             d="m 315.67,398.89 c -18.12,0.19 15.86,0.2 -18.97,0.1 -6.01,-0.02 -14.07,-0.04 -24.81,-0.06 -4.49,-0.01 -10.09,-0.03 -17.11,-0.04 0,-17.31 13.64,-31.37 30.44,-31.37 16.81,0 30.45,14.06 30.45,31.37 z"
             inkscape:connector-curvature="0"
             style="fill:#2c2c2c;stroke:#d0d0d0;stroke-width:2.61570001" />
          <path
             id="path13939"
             d="m 198.48,364.62 a 26.895,26.08797 0 1 1 -53.79,0 26.895,26.08797 0 1 1 53.79,0 z"
             transform="matrix(1.3936,0,0,1.2924,-24.781,-68.161)"
             inkscape:connector-curvature="0"
             style="fill:#616161;stroke:#ffffff" />
          <path
             id="path13941"
             d="m 213.95,404.18 -26.94,20.74 24.56,-23.79 -2.16,-31.11 6,30.48 29.64,20.05 z"
             inkscape:connector-curvature="0"
             style="fill:#ffffff;stroke:#d0d0d0;stroke-width:3.23869991" />
          <path
             id="path13943"
             d="m 231.02,403.48 a 12.371,12.237 0 1 1 -24.74,0 12.371,12.237 0 1 1 24.74,0 z"
             transform="matrix(1.4622,0,0,1.3354,-106.44,-136.95)"
             inkscape:connector-curvature="0"
             style="fill:#8d8d8d;stroke:#d0d0d0;stroke-width:1.93009996" />
        </g>
        <path
           id="path13945"
           d="m 78.179,562.61 a 7.6785,6.9803818 0 1 1 -15.357,0 7.6785,6.9803818 0 1 1 15.357,0 z"
           transform="matrix(0.78509,0,0,0.7439,229.7,-38.399)"
           inkscape:connector-curvature="0"
           style="fill:#bdb7b7;stroke-width:0" />
      </g>
      <path
         id="path16606"
         d="m 307.82,168.13 c 0,0 -28.16,35.84 -37.12,51.2 -8.96,15.36 -37.11,65.91 -37.11,65.91 0,0 252.78,-15.36 296.3,-14.08 43.51,1.28 182.22,-0.34 280.3,7.04 1.94,0.15 -20.62,-42.89 -37.74,-69.56 -17.13,-26.68 -28.82,-36.99 -35.86,-45.63 -14.08,-17.28 -364.77,-8.96 -428.77,5.12 z"
         inkscape:connector-curvature="0"
         style="fill-rule:evenodd;stroke:#000000;stroke-width:1px" />
      <path
         id="path17569"
         d="m 226.16,120.76 c -84.28,-0.56 -147.18,-1.13 -279.21,0 0,-9.63 62.543,-17.45 139.6,-17.45 77.07,0 139.61,7.82 139.61,17.45 z"
         transform="translate(433.84,182.88)"
         inkscape:connector-curvature="0"
         style="stroke-width:0" />
    </g>
  </g>
  <metadata
     id="metadata75">
    <rdf:RDF>
      <cc:Work>
        <dc:format>image/svg+xml</dc:format>
        <dc:type
           rdf:resource="http://purl.org/dc/dcmitype/StillImage" />
        <cc:license
           rdf:resource="http://creativecommons.org/publicdomain/zero/1.0/" />
        <dc:publisher>
          <cc:Agent
             rdf:about="http://openclipart.org/">
            <dc:title>Openclipart</dc:title>
          </cc:Agent>
        </dc:publisher>
        <dc:title>grey car</dc:title>
        <dc:date>2007-01-07T04:36:54</dc:date>
        <dc:description>car, car, clip art, clipart, image, media, public domain, svg, vehicle, vehicle, </dc:description>
        <dc:source>http://openclipart.org/detail/2829/grey-car-by-machovka</dc:source>
        <dc:creator>
          <cc:Agent>
            <dc:title>Machovka</dc:title>
          </cc:Agent>
        </dc:creator>
        <dc:subject>
          <rdf:Bag>
            <rdf:li>car</rdf:li>
            <rdf:li>clip art</rdf:li>
            <rdf:li>clipart</rdf:li>
            <rdf:li>image</rdf:li>
            <rdf:li>media</rdf:li>
            <rdf:li>public domain</rdf:li>
            <rdf:li>svg</rdf:li>
            <rdf:li>vehicle</rdf:li>
          </rdf:Bag>
        </dc:subject>
      </cc:Work>
      <cc:License
         rdf:about="http://creativecommons.org/publicdomain/zero/1.0/">
        <cc:permits
           rdf:resource="http://creativecommons.org/ns#Reproduction" />
        <cc:permits
           rdf:resource="http://creativecommons.org/ns#Distribution" />
        <cc:permits
           rdf:resource="http://creativecommons.org/ns#DerivativeWorks" />
      </cc:License>
    </rdf:RDF>
  </metadata>
</svg>
